PathFileType	4	(X/Y/Z)	pose_F01_0-86.trc
DataRate	CameraRate	NumFrames	NumMarkers	Units	OrigDataRate	OrigDataStartFrame	OrigNumFrames
30	30	7	21	m	30	0	86
Frame#	Time	CHip			RHip			RKnee			RAnkle			RBigToe			RSmallToe			RHeel			LHip			LKnee			LAnkle			LBigToe			LSmallToe			LHeel			Neck			Nose			RShoulder			RElbow			RWrist			LShoulder			LElbow			LWrist			
		X1	Y1	Z1	X2	Y2	Z2	X3	Y3	Z3	X4	Y4	Z4	X5	Y5	Z5	X6	Y6	Z6	X7	Y7	Z7	X8	Y8	Z8	X9	Y9	Z9	X10	Y10	Z10	X11	Y11	Z11	X12	Y12	Z12	X13	Y13	Z13	X14	Y14	Z14	X15	Y15	Z15	X16	Y16	Z16	X17	Y17	Z17	X18	Y18	Z18	X19	Y19	Z19	X20	Y20	Z20	X21	Y21	Z21	
0	0.0	-0.26607554927516536	1.832030501969372	-0.4661448371279568	-0.26727331024271145	1.8304066525317737	-0.4020377239724101	-0.27498064496081565	1.6996654651975256	-0.37560582822771865	-0.2803382396049925	1.563952353935787	-0.3483778895021375	-0.2576178271900958	1.5345969381054807	-0.3611294389877573	-0.26120886658837916	1.5390012410159526	-0.32845340525926064	-0.28513543177434103	1.559153785565974	-0.3475293962558721	-0.25627110022212274	1.8334167913296322	-0.5214706071373822	-0.2649317656317346	1.7009004457229522	-0.48708977290135413	-0.27785123887669694	1.579179331092981	-0.45625599573147985	-0.24680138376054347	1.548664233453646	-0.4908062788784339	-0.24790815837279595	1.5560874896781702	-0.5134923319951772	-0.27522356271064596	1.5680001322901076	-0.44328767526981105	-0.26765218405456953	1.9936497557865902	-0.48731769227381266	-0.24308535541741924	2.040551439050422	-0.5157641170486639	-0.27718332672500967	1.9901738484572258	-0.402180782776791	-0.27983507293456983	1.919274244838231	-0.3426883501786699	-0.26253715930204335	1.9758364500033805	-0.45770579833132524	-0.25839746986136347	1.9957843121886674	-0.570344551183543	-0.23160330371982654	1.9274183917762344	-0.6456911783855349	-0.21060839237133122	1.9822387583837862	-0.5798836904554392
1	0.03333333333333333	-0.26472430773285405	1.8367303663249852	-0.46379671234880093	-0.26876430721481737	1.8348598927453041	-0.40079520613588815	-0.2767132179825036	1.7007795098685101	-0.37377060071986595	-0.28100016642451325	1.565238677387013	-0.34764594399612164	-0.2558319240757997	1.5351521067481477	-0.36320129231405573	-0.26102471853372305	1.5379737853986126	-0.32870893120839584	-0.28523781759685335	1.5597442688733532	-0.3475071830468347	-0.2558495577690632	1.838037727803692	-0.5221881629847182	-0.2669615381865365	1.703678467384605	-0.48530388730184304	-0.2749288211771002	1.5773946454506724	-0.45459442317015164	-0.24439491876388839	1.546627671142762	-0.49328601227074687	-0.24768044688137625	1.5551985902813286	-0.5135292543343462	-0.274310537058653	1.5664230788121623	-0.4398046074545489	-0.2675554970333002	1.9945478047214742	-0.4872079573129755	-0.24308268336031527	2.04293945531141	-0.5169104710998738	-0.27706585825693564	1.9911354139853832	-0.40214524405030855	-0.2689223838607189	1.9272332000043524	-0.37517980960717867	-0.25411550783649756	1.986411466622716	-0.46803052236981113	-0.2581770330868354	1.9966727330615421	-0.56971470811861	-0.22525201093334646	1.9351098756854552	-0.6272892659994488	-0.22137687027762507	1.9917933585036194	-0.5642248055755013
2	0.06666666666666667	-0.26337306619054274	1.8414302306805985	-0.4614485875696451	-0.2702553041869233	1.8393131329588346	-0.3995526882993662	-0.27844579100419153	1.7018935545394946	-0.37193537321201325	-0.281662093244034	1.5665250008382392	-0.3469139984901058	-0.2540460209615036	1.5357072753908148	-0.3652731456403542	-0.26084057047906695	1.5369463297812727	-0.32896445715753103	-0.28534020341936567	1.5603347521807323	-0.3474849698377973	-0.2554280153160037	1.8426586642777516	-0.5229057188320541	-0.2689913107413384	1.706456489046258	-0.48351800170233195	-0.2720064034775035	1.575609959808364	-0.45293285060882343	-0.2419884537672333	1.544591108831878	-0.4957657456630598	-0.24745273538995655	1.554309690884487	-0.5135661766735151	-0.27339751140666	1.564846025334217	-0.43632153963928677	-0.2674588100120309	1.9954458536563582	-0.48709822235213834	-0.2430800113032113	2.045327471572398	-0.5180568251510836	-0.2769483897888616	1.9920969795135406	-0.4021097053238261	-0.258009694786868	1.9351921551704738	-0.40767126903568746	-0.24569385637095179	1.9969864832420514	-0.478355246408297	-0.2579565963123073	1.997561153934417	-0.5690848650536771	-0.21890071814686637	1.942801359594676	-0.6088873536133627	-0.2321453481839189	2.0013479586234526	-0.5485659206955633
3	0.1	-0.2619380459026951	1.8381581951738428	-0.46286346126540995	-0.2686576656983939	1.8374909935279775	-0.4011742034484385	-0.2806548904745274	1.69931610363801	-0.36900204138767234	-0.2803322041378801	1.5650193043863247	-0.3439151078496028	-0.2560368335909174	1.5358400198216928	-0.36320819351326733	-0.26090828066154936	1.5368582157318456	-0.3289351136256756	-0.28538853697358785	1.5606821398718609	-0.3474625768347944	-0.25293132669099333	1.8395005438318621	-0.5214770395326921	-0.2692184779258651	1.7053976444532624	-0.4829892381107821	-0.2748210679537953	1.5770163889064182	-0.454553663406864	-0.24226621231300816	1.5462622951293143	-0.4955089398013057	-0.24755953193773544	1.5548375890594393	-0.5135553761281842	-0.2732199010133785	1.5637059643052245	-0.43626477925986595	-0.2674728618467823	1.995432669390801	-0.48709379501535277	-0.24292554093590957	2.0457588516835274	-0.5173646717422007	-0.2757866543401845	1.992800035385109	-0.3990414237550528	-0.25310600543903117	1.9424666813553648	-0.4205266171836951	-0.2403974593985661	2.0022926413481525	-0.488436036313803	-0.2599624669767303	1.9988017553015085	-0.5674591009773957	-0.22640625400159678	1.9448855374532628	-0.5970310837682165	-0.23616822953039268	2.0017788246753074	-0.5531170787284604
4	0.13333333333333333	-0.2633710550780488	1.8430545862725864	-0.4615564759451614	-0.26842260040642374	1.8412306528927533	-0.40176816233109663	-0.27755415164467334	1.7010281044764797	-0.36823824890784884	-0.2817963769169582	1.5657647817626574	-0.34240411360723927	-0.25786805402697704	1.5355763114882586	-0.3609979995064602	-0.2626767408935149	1.5368219440059825	-0.32680048567990544	-0.28511606084805785	1.559258334497868	-0.3473974854251221	-0.2546708967421882	1.843174448789679	-0.5198260049586683	-0.26922159279200697	1.7053617918006776	-0.48299944789538946	-0.2753861807043866	1.5776579964464896	-0.4538237665786516	-0.2443205264320178	1.5463689667369163	-0.49332300370243304	-0.24767253655901447	1.5550882658194898	-0.5135242314912524	-0.27385511048330163	1.5673325921210313	-0.43578890141410254	-0.269313180724746	1.994974195335817	-0.4844315246628904	-0.24201388759453407	2.045707754824425	-0.5141446096932283	-0.2768371300480771	1.9928788934905581	-0.40218087412731407	-0.24450545041573113	1.9398800171092345	-0.42590797321764795	-0.24311724536753382	2.0031910620012194	-0.48056617049303685	-0.2591240758252573	1.9974467794806878	-0.5637984634440432	-0.22850355366104394	1.9446243221279893	-0.5947420257166285	-0.24017158910273273	2.0056115171291866	-0.5405159847055169
5	0.16666666666666666	-0.26256848481745465	1.8417472180914236	-0.45808868428916705	-0.26943526923229466	1.839920529888179	-0.39622397094881123	-0.2795404563681643	1.69910041144304	-0.3657693599089888	-0.2816973625825696	1.5639643906661205	-0.3466209241389233	-0.2538129855208837	1.5344629509526861	-0.3652276245435079	-0.26064369939985205	1.535898627041391	-0.3289031226666386	-0.28540785530354035	1.560527945070553	-0.34750497514354556	-0.2566394583268345	1.8430441265601485	-0.5176685564629707	-0.26695022703221866	1.7036169180751333	-0.4851913623407825	-0.274917457464954	1.5746948644841858	-0.4543571895583436	-0.2424578937150461	1.5469844880648878	-0.4955348096738598	-0.247631791205706	1.555144200304767	-0.5135720003700739	-0.2745265700226993	1.5647787606825743	-0.43956536106638044	-0.2712809944878098	1.9949226913553337	-0.48226136066431236	-0.24394376121770445	2.0459198784330628	-0.5120438345444779	-0.27692434778544006	1.99197716967256	-0.40208421634577407	-0.24287459733093947	1.9379789959006612	-0.4279621237334851	-0.2413391642455377	1.9990033146306048	-0.4822828384903338	-0.26109278817715625	1.9972276934219029	-0.5616926932464931	-0.2276770973217251	1.9445994475809247	-0.5915404727841237	-0.24225728902331564	2.004094252246132	-0.5379425541545395
6	0.2	-0.2624105834392028	1.840383006607535	-0.45792654950034883	-0.2675549383268313	1.8375203747795532	-0.3979885531699084	-0.2774685454776584	1.700407014482065	-0.36826918890646176	-0.2805507570025193	1.5638398080518596	-0.34344436533798317	-0.2540323749570793	1.5357112937753843	-0.36525711691174034	-0.26088850711742756	1.537309302260706	-0.32897982607472337	-0.285572114386941	1.5590519890171095	-0.34696656858917746	-0.2546051991297207	1.8416851412701174	-0.5195378817830997	-0.26882608030101357	1.7021541358414438	-0.4829633669267832	-0.2750893524700952	1.575894933269136	-0.4540673722077845	-0.24418217999413788	1.5453271029919098	-0.4935576631842823	-0.2477818143403233	1.5555307768273	-0.5135380013552704	-0.27432040446046985	1.5637189626616534	-0.4394927475550211	-0.27230998087762726	1.9961351698068555	-0.477508374264591	-0.24216426051468073	2.044541355903858	-0.5142164752350047	-0.2758633173563063	1.99198293373013	-0.3990254958157938	-0.24424088503966043	1.9353159294661635	-0.4225970491995607	-0.2455109957936484	2.0008075821835645	-0.47873936740960327	-0.2612431907140635	1.997240536491303	-0.5615289400858569	-0.22764599443866476	1.9445366451234656	-0.5916586377410695	-0.2442386789422348	2.0057176108983037	-0.5361421312132097
